<svg id="visual" viewBox="0 0 900 600" width="900" height="600" xmlns="http://www.w3.org/2000/svg" xmlns:xlink="http://www.w3.org/1999/xlink" version="1.1"><path d="M0 76L15 78.7C30 81.3 60 86.7 90 87C120 87.3 150 82.7 180 84.8C210 87 240 96 270 100.5C300 105 330 105 360 101.8C390 98.7 420 92.3 450 86.8C480 81.3 510 76.7 540 78.8C570 81 600 90 630 91C660 92 690 85 720 83C750 81 780 84 810 87.8C840 91.7 870 96.3 885 98.7L900 101L900 0L885 0C870 0 840 0 810 0C780 0 750 0 720 0C690 0 660 0 630 0C600 0 570 0 540 0C510 0 480 0 450 0C420 0 390 0 360 0C330 0 300 0 270 0C240 0 210 0 180 0C150 0 120 0 90 0C60 0 30 0 15 0L0 0Z" fill="#ffffff" stroke-linecap="round" stroke-linejoin="miter"></path></svg>